<mxfile host="app.diagrams.net" modified="2022-05-14T02:15:43.140Z" agent="5.0 (Windows NT 10.0; Win64; x64) AppleWebKit/537.36 (KHTML, like Gecko) Chrome/101.0.4951.54 Safari/537.36 Edg/101.0.1210.39" etag="bTgv5KDI67Sy8f_la5Xq" version="18.0.3" type="github">
  <diagram id="yQVi_SkvyjYTGp6Si26e" name="Page-1">
    <mxGraphModel dx="920" dy="605" grid="1" gridSize="10" guides="1" tooltips="1" connect="1" arrows="1" fold="1" page="1" pageScale="1" pageWidth="827" pageHeight="1169" math="0" shadow="0">
      <root>
        <mxCell id="0" />
        <mxCell id="1" parent="0" />
        <mxCell id="B0JcqI4GDCYBzWeRstW6-7" value="" style="rounded=0;whiteSpace=wrap;html=1;" vertex="1" parent="1">
          <mxGeometry x="20" y="70" width="750" height="550" as="geometry" />
        </mxCell>
        <mxCell id="B0JcqI4GDCYBzWeRstW6-8" value="" style="rounded=0;whiteSpace=wrap;html=1;fontFamily=Helvetica;" vertex="1" parent="1">
          <mxGeometry x="20" y="70" width="750" height="400" as="geometry" />
        </mxCell>
        <mxCell id="B0JcqI4GDCYBzWeRstW6-11" value="" style="rounded=0;whiteSpace=wrap;html=1;fontFamily=Helvetica;" vertex="1" parent="1">
          <mxGeometry x="40" y="470" width="780" height="150" as="geometry" />
        </mxCell>
        <mxCell id="B0JcqI4GDCYBzWeRstW6-12" value="" style="rounded=0;whiteSpace=wrap;html=1;fontFamily=Helvetica;" vertex="1" parent="1">
          <mxGeometry x="40" y="70" width="780" height="400" as="geometry" />
        </mxCell>
        <mxCell id="B0JcqI4GDCYBzWeRstW6-13" value="Usuário" style="text;html=1;resizable=0;autosize=1;align=center;verticalAlign=middle;points=[];fillColor=none;strokeColor=none;rounded=0;fontFamily=Helvetica;rotation=270;fontStyle=1" vertex="1" parent="1">
          <mxGeometry y="485" width="60" height="20" as="geometry" />
        </mxCell>
        <mxCell id="B0JcqI4GDCYBzWeRstW6-14" value="Central de atendimento" style="text;html=1;resizable=0;autosize=1;align=center;verticalAlign=middle;points=[];fillColor=none;strokeColor=none;rounded=0;fontFamily=Helvetica;rotation=270;fontStyle=1" vertex="1" parent="1">
          <mxGeometry x="-45" y="230" width="150" height="20" as="geometry" />
        </mxCell>
        <mxCell id="B0JcqI4GDCYBzWeRstW6-16" value="" style="rounded=0;whiteSpace=wrap;html=1;fontFamily=Helvetica;" vertex="1" parent="1">
          <mxGeometry x="40" y="70" width="20" height="400" as="geometry" />
        </mxCell>
        <mxCell id="B0JcqI4GDCYBzWeRstW6-17" value="" style="rounded=0;whiteSpace=wrap;html=1;fontFamily=Helvetica;" vertex="1" parent="1">
          <mxGeometry x="40" y="180" width="20" height="130" as="geometry" />
        </mxCell>
        <mxCell id="B0JcqI4GDCYBzWeRstW6-18" value="Nível 1" style="text;html=1;resizable=0;autosize=1;align=center;verticalAlign=middle;points=[];fillColor=none;strokeColor=none;rounded=0;fontFamily=Helvetica;rotation=270;" vertex="1" parent="1">
          <mxGeometry x="25" y="350" width="50" height="20" as="geometry" />
        </mxCell>
        <mxCell id="B0JcqI4GDCYBzWeRstW6-19" value="Nível 2" style="text;html=1;resizable=0;autosize=1;align=center;verticalAlign=middle;points=[];fillColor=none;strokeColor=none;rounded=0;fontFamily=Helvetica;rotation=270;" vertex="1" parent="1">
          <mxGeometry x="25" y="235" width="50" height="20" as="geometry" />
        </mxCell>
        <mxCell id="B0JcqI4GDCYBzWeRstW6-20" value="Nível 3" style="text;html=1;resizable=0;autosize=1;align=center;verticalAlign=middle;points=[];fillColor=none;strokeColor=none;rounded=0;fontFamily=Helvetica;rotation=270;" vertex="1" parent="1">
          <mxGeometry x="25" y="110" width="50" height="20" as="geometry" />
        </mxCell>
        <mxCell id="B0JcqI4GDCYBzWeRstW6-21" value="" style="rounded=0;whiteSpace=wrap;html=1;fontFamily=Helvetica;" vertex="1" parent="1">
          <mxGeometry x="60" y="70" width="620" height="110" as="geometry" />
        </mxCell>
        <mxCell id="B0JcqI4GDCYBzWeRstW6-22" value="" style="rounded=0;whiteSpace=wrap;html=1;fontFamily=Helvetica;" vertex="1" parent="1">
          <mxGeometry x="60" y="180" width="620" height="130" as="geometry" />
        </mxCell>
        <mxCell id="B0JcqI4GDCYBzWeRstW6-23" value="" style="rounded=0;whiteSpace=wrap;html=1;fontFamily=Helvetica;" vertex="1" parent="1">
          <mxGeometry x="60" y="310" width="690" height="160" as="geometry" />
        </mxCell>
        <mxCell id="B0JcqI4GDCYBzWeRstW6-24" value="" style="ellipse;whiteSpace=wrap;html=1;aspect=fixed;fontFamily=Helvetica;fillColor=#d5e8d4;strokeColor=#82b366;" vertex="1" parent="1">
          <mxGeometry x="50" y="530" width="25" height="25" as="geometry" />
        </mxCell>
        <mxCell id="B0JcqI4GDCYBzWeRstW6-26" value="" style="endArrow=classic;html=1;rounded=0;fontFamily=Helvetica;" edge="1" parent="1">
          <mxGeometry width="50" height="50" relative="1" as="geometry">
            <mxPoint x="75" y="540" as="sourcePoint" />
            <mxPoint x="100" y="540" as="targetPoint" />
          </mxGeometry>
        </mxCell>
        <mxCell id="B0JcqI4GDCYBzWeRstW6-27" value="" style="rounded=1;whiteSpace=wrap;html=1;fontFamily=Helvetica;fillColor=#dae8fc;strokeColor=#6c8ebf;" vertex="1" parent="1">
          <mxGeometry x="100" y="520" width="120" height="40" as="geometry" />
        </mxCell>
        <mxCell id="B0JcqI4GDCYBzWeRstW6-28" value="Solicitar atendimento" style="text;html=1;resizable=0;autosize=1;align=center;verticalAlign=middle;points=[];fillColor=none;strokeColor=none;rounded=0;fontFamily=Helvetica;" vertex="1" parent="1">
          <mxGeometry x="95" y="530" width="130" height="20" as="geometry" />
        </mxCell>
        <mxCell id="B0JcqI4GDCYBzWeRstW6-30" value="" style="endArrow=classic;html=1;rounded=0;fontFamily=Helvetica;" edge="1" parent="1">
          <mxGeometry width="50" height="50" relative="1" as="geometry">
            <mxPoint x="220" y="539.41" as="sourcePoint" />
            <mxPoint x="270" y="539.41" as="targetPoint" />
          </mxGeometry>
        </mxCell>
        <mxCell id="B0JcqI4GDCYBzWeRstW6-31" value="" style="rounded=1;whiteSpace=wrap;html=1;fontFamily=Helvetica;fillColor=#dae8fc;strokeColor=#6c8ebf;" vertex="1" parent="1">
          <mxGeometry x="270" y="520" width="200" height="40" as="geometry" />
        </mxCell>
        <mxCell id="B0JcqI4GDCYBzWeRstW6-32" value="Informar motivo do atendimento&lt;br&gt;(incidente, problema ou requisição)" style="text;html=1;resizable=0;autosize=1;align=center;verticalAlign=middle;points=[];fillColor=none;strokeColor=none;rounded=0;fontFamily=Helvetica;" vertex="1" parent="1">
          <mxGeometry x="270" y="525" width="200" height="30" as="geometry" />
        </mxCell>
        <mxCell id="B0JcqI4GDCYBzWeRstW6-33" value="" style="curved=1;endArrow=classic;html=1;rounded=0;fontFamily=Helvetica;" edge="1" parent="1">
          <mxGeometry width="50" height="50" relative="1" as="geometry">
            <mxPoint x="295" y="520" as="sourcePoint" />
            <mxPoint x="105" y="430" as="targetPoint" />
            <Array as="points">
              <mxPoint x="295" y="490" />
              <mxPoint x="95" y="520" />
            </Array>
          </mxGeometry>
        </mxCell>
        <mxCell id="B0JcqI4GDCYBzWeRstW6-34" value="" style="ellipse;whiteSpace=wrap;html=1;aspect=fixed;fontFamily=Helvetica;fillColor=#f8cecc;strokeColor=#b85450;" vertex="1" parent="1">
          <mxGeometry x="780" y="280" width="30" height="30" as="geometry" />
        </mxCell>
        <mxCell id="B0JcqI4GDCYBzWeRstW6-35" value="" style="rounded=1;whiteSpace=wrap;html=1;fontFamily=Helvetica;fillColor=#dae8fc;strokeColor=#6c8ebf;" vertex="1" parent="1">
          <mxGeometry x="72.5" y="390" width="115" height="40" as="geometry" />
        </mxCell>
        <mxCell id="B0JcqI4GDCYBzWeRstW6-36" value="Receber solicitação" style="text;html=1;resizable=0;autosize=1;align=center;verticalAlign=middle;points=[];fillColor=none;strokeColor=none;rounded=0;fontFamily=Helvetica;" vertex="1" parent="1">
          <mxGeometry x="67.5" y="400" width="120" height="20" as="geometry" />
        </mxCell>
        <mxCell id="B0JcqI4GDCYBzWeRstW6-37" value="" style="endArrow=classic;html=1;rounded=0;fontFamily=Helvetica;" edge="1" parent="1">
          <mxGeometry width="50" height="50" relative="1" as="geometry">
            <mxPoint x="190" y="409.81999999999994" as="sourcePoint" />
            <mxPoint x="210" y="409.40999999999997" as="targetPoint" />
          </mxGeometry>
        </mxCell>
        <mxCell id="B0JcqI4GDCYBzWeRstW6-38" value="Registrar solicitação" style="rounded=1;whiteSpace=wrap;html=1;fontFamily=Helvetica;fillColor=#dae8fc;strokeColor=#6c8ebf;" vertex="1" parent="1">
          <mxGeometry x="210" y="390" width="120" height="40" as="geometry" />
        </mxCell>
        <mxCell id="B0JcqI4GDCYBzWeRstW6-39" value="" style="endArrow=classic;html=1;rounded=0;fontFamily=Helvetica;" edge="1" parent="1">
          <mxGeometry width="50" height="50" relative="1" as="geometry">
            <mxPoint x="330" y="410.23" as="sourcePoint" />
            <mxPoint x="360" y="409.40999999999997" as="targetPoint" />
          </mxGeometry>
        </mxCell>
        <mxCell id="B0JcqI4GDCYBzWeRstW6-40" value="Consultar base de conhecimento" style="rounded=1;whiteSpace=wrap;html=1;fontFamily=Helvetica;fillColor=#dae8fc;strokeColor=#6c8ebf;" vertex="1" parent="1">
          <mxGeometry x="360" y="390" width="120" height="40" as="geometry" />
        </mxCell>
        <mxCell id="B0JcqI4GDCYBzWeRstW6-41" value="" style="endArrow=classic;html=1;rounded=0;fontFamily=Helvetica;" edge="1" parent="1">
          <mxGeometry width="50" height="50" relative="1" as="geometry">
            <mxPoint x="440" y="390" as="sourcePoint" />
            <mxPoint x="470" y="360" as="targetPoint" />
          </mxGeometry>
        </mxCell>
        <mxCell id="B0JcqI4GDCYBzWeRstW6-42" value="" style="rhombus;whiteSpace=wrap;html=1;fontFamily=Helvetica;fillColor=#fff2cc;strokeColor=#d6b656;" vertex="1" parent="1">
          <mxGeometry x="470" y="340" width="40" height="40" as="geometry" />
        </mxCell>
        <mxCell id="B0JcqI4GDCYBzWeRstW6-43" value="É possível atendimento&lt;br&gt;no 1° nível?" style="text;html=1;resizable=0;autosize=1;align=center;verticalAlign=middle;points=[];fillColor=none;strokeColor=none;rounded=0;fontFamily=Helvetica;" vertex="1" parent="1">
          <mxGeometry x="370" y="320" width="140" height="30" as="geometry" />
        </mxCell>
        <mxCell id="B0JcqI4GDCYBzWeRstW6-45" value="" style="endArrow=classic;html=1;rounded=0;fontFamily=Helvetica;" edge="1" parent="1">
          <mxGeometry width="50" height="50" relative="1" as="geometry">
            <mxPoint x="510" y="359.41" as="sourcePoint" />
            <mxPoint x="540" y="359.41" as="targetPoint" />
          </mxGeometry>
        </mxCell>
        <mxCell id="B0JcqI4GDCYBzWeRstW6-46" value="Não" style="text;html=1;resizable=0;autosize=1;align=center;verticalAlign=middle;points=[];fillColor=none;strokeColor=none;rounded=0;fontFamily=Helvetica;" vertex="1" parent="1">
          <mxGeometry x="500" y="360" width="40" height="20" as="geometry" />
        </mxCell>
        <mxCell id="B0JcqI4GDCYBzWeRstW6-48" value="Encaminhar para&lt;br&gt;nível 2" style="rounded=1;whiteSpace=wrap;html=1;fontFamily=Helvetica;fillColor=#dae8fc;strokeColor=#6c8ebf;" vertex="1" parent="1">
          <mxGeometry x="540" y="340" width="120" height="40" as="geometry" />
        </mxCell>
        <mxCell id="B0JcqI4GDCYBzWeRstW6-49" value="" style="curved=1;endArrow=classic;html=1;rounded=0;fontFamily=Helvetica;" edge="1" parent="1">
          <mxGeometry width="50" height="50" relative="1" as="geometry">
            <mxPoint x="280" y="640" as="sourcePoint" />
            <mxPoint x="520" y="660" as="targetPoint" />
            <Array as="points">
              <mxPoint x="270" y="730" />
              <mxPoint x="360" y="690" />
            </Array>
          </mxGeometry>
        </mxCell>
      </root>
    </mxGraphModel>
  </diagram>
</mxfile>
